<svg width="32" height="32" viewBox="0 0 32 32" xmlns="http://www.w3.org/2000/svg">
  <defs>
    <radialGradient id="recordGradient" cx="50%" cy="50%">
      <stop offset="0%" style="stop-color:#2a2a2a;stop-opacity:1" />
      <stop offset="50%" style="stop-color:#333333;stop-opacity:1" />
      <stop offset="100%" style="stop-color:#2a2a2a;stop-opacity:1" />
    </radialGradient>
  </defs>
  
  <!-- Record surface with subtle radial shading -->
  <circle cx="16" cy="16" r="15" fill="url(#recordGradient)"/>
  
  <!-- Subtle radial segments for texture -->
  <g opacity="0.3">
    <path d="M 16 16 L 16 1 A 15 15 0 0 1 25 8 Z" fill="#1a1a1a"/>
    <path d="M 16 16 L 25 8 A 15 15 0 0 1 31 16 Z" fill="#2a2a2a"/>
    <path d="M 16 16 L 31 16 A 15 15 0 0 1 25 24 Z" fill="#1a1a1a"/>
    <path d="M 16 16 L 25 24 A 15 15 0 0 1 16 31 Z" fill="#2a2a2a"/>
    <path d="M 16 16 L 16 31 A 15 15 0 0 1 7 24 Z" fill="#1a1a1a"/>
    <path d="M 16 16 L 7 24 A 15 15 0 0 1 1 16 Z" fill="#2a2a2a"/>
    <path d="M 16 16 L 1 16 A 15 15 0 0 1 7 8 Z" fill="#1a1a1a"/>
    <path d="M 16 16 L 7 8 A 15 15 0 0 1 16 1 Z" fill="#2a2a2a"/>
  </g>
  
  <!-- Center label - yellow left, orange/peach right -->
  <circle cx="16" cy="16" r="6" fill="#FFD700"/>
  <path d="M 16 10 A 6 6 0 0 0 16 22 Z" fill="#FFB347"/>
  
  <!-- Spindle hole -->
  <circle cx="16" cy="16" r="1.5" fill="#000000"/>
</svg>

