<svg width="180" height="180" viewBox="0 0 180 180" xmlns="http://www.w3.org/2000/svg">
  <defs>
    <radialGradient id="recordGradientLarge" cx="50%" cy="50%">
      <stop offset="0%" style="stop-color:#2a2a2a;stop-opacity:1" />
      <stop offset="50%" style="stop-color:#333333;stop-opacity:1" />
      <stop offset="100%" style="stop-color:#2a2a2a;stop-opacity:1" />
    </radialGradient>
  </defs>
  
  <!-- Record surface with subtle radial shading -->
  <circle cx="90" cy="90" r="85" fill="url(#recordGradientLarge)"/>
  
  <!-- Subtle radial segments for texture -->
  <g opacity="0.3">
    <path d="M 90 90 L 90 5 A 85 85 0 0 1 140 45 Z" fill="#1a1a1a"/>
    <path d="M 90 90 L 140 45 A 85 85 0 0 1 175 90 Z" fill="#2a2a2a"/>
    <path d="M 90 90 L 175 90 A 85 85 0 0 1 140 135 Z" fill="#1a1a1a"/>
    <path d="M 90 90 L 140 135 A 85 85 0 0 1 90 175 Z" fill="#2a2a2a"/>
    <path d="M 90 90 L 90 175 A 85 85 0 0 1 40 135 Z" fill="#1a1a1a"/>
    <path d="M 90 90 L 40 135 A 85 85 0 0 1 5 90 Z" fill="#2a2a2a"/>
    <path d="M 90 90 L 5 90 A 85 85 0 0 1 40 45 Z" fill="#1a1a1a"/>
    <path d="M 90 90 L 40 45 A 85 85 0 0 1 90 5 Z" fill="#2a2a2a"/>
  </g>
  
  <!-- Center label - yellow left, orange/peach right -->
  <circle cx="90" cy="90" r="35" fill="#FFD700"/>
  <path d="M 90 55 A 35 35 0 0 0 90 125 Z" fill="#FFB347"/>
  
  <!-- Spindle hole -->
  <circle cx="90" cy="90" r="8" fill="#000000"/>
</svg>

